# xmcd
#
# Track frame offsets:
#	150
#	25861
#	49329
#	74877
#	90816
#	115752
#	141851
#	162744
#	197858
#	224033
#	247909
#	270198
#
# Disc length: 3800 seconds
# Revision: 0
# Processed by: cddbd v1.5.2PL0 Copyright (c) Steve Scherf et al.
# Submitted via: dBpowerAMP V12.0
#
DISCID=b20ed60c
DTITLE=Various Artist - Top 25 Gospel Songs [CD2 of 2)
DYEAR=2012
DGENRE=Gospel
TTITLE0=Le'Andria Johnson - Struggle Not
TTITLE1=Canton Jones - Be Healed
TTITLE2=Wess Morgan - I Choose To Worship
TTITLE3=Isaac Carree - Power
TTITLE4=Brian Courtney Wilson - Almighty God
TTITLE5=Andraé Crouch - The Promise
TTITLE6=Jonathan Butler - Falling In Love With Jesus
TTITLE7=Donald Lawrence - There Is A King In You
TTITLE8=Ashmont Hill - Your Masterpiece
TTITLE9=Micah Stampley - Desperate People
TTITLE10=Nicole C. Mullen - My Tribute/Redeemer
TTITLE11=Committed - Soon Ah Will Be Done
EXTD=
EXTT0=
EXTT1=
EXTT2=
EXTT3=
EXTT4=
EXTT5=
EXTT6=
EXTT7=
EXTT8=
EXTT9=
EXTT10=
EXTT11=
PLAYORDER=
